<?xml version="1.0" encoding="UTF-8" standalone="no"?>
<svg
   xmlns:dc="http://purl.org/dc/elements/1.1/"
   xmlns:cc="http://creativecommons.org/ns#"
   xmlns:rdf="http://www.w3.org/1999/02/22-rdf-syntax-ns#"
   xmlns:svg="http://www.w3.org/2000/svg"
   xmlns="http://www.w3.org/2000/svg"
   xmlns:sodipodi="http://sodipodi.sourceforge.net/DTD/sodipodi-0.dtd"
   xmlns:inkscape="http://www.inkscape.org/namespaces/inkscape"
   viewBox="0 0 48 48"
   version="1.1"
   x="0px"
   y="0px"
   id="svg2"
   inkscape:version="0.91 r13725"
   sodipodi:docname="analysis.svg">
  <metadata
     id="metadata16">
    <rdf:RDF>
      <cc:Work
         rdf:about="">
        <dc:format>image/svg+xml</dc:format>
        <dc:type
           rdf:resource="http://purl.org/dc/dcmitype/StillImage" />
        <dc:title></dc:title>
      </cc:Work>
    </rdf:RDF>
  </metadata>
  <defs
     id="defs14" />
  <sodipodi:namedview
     pagecolor="#ffffff"
     bordercolor="#666666"
     borderopacity="1"
     objecttolerance="10"
     gridtolerance="10"
     guidetolerance="10"
     inkscape:pageopacity="0"
     inkscape:pageshadow="2"
     inkscape:window-width="640"
     inkscape:window-height="480"
     id="namedview12"
     showgrid="false"
     inkscape:zoom="3.9333333"
     inkscape:cx="24"
     inkscape:cy="30"
     inkscape:window-x="0"
     inkscape:window-y="0"
     inkscape:window-maximized="0"
     inkscape:current-layer="svg2" />
  <g
     transform="translate(0,-1004.3622)"
     id="g4">
    <path
       style=""
       d="M 24 0 A 24 24 0 0 0 0 24 A 24 24 0 0 0 24 48 A 24 24 0 0 0 48 24 A 24 24 0 0 0 24 0 z M 13.5 10 L 28.34375 10 A 0.50005 0.50005 0 0 1 28.427734 10.009766 A 0.50005 0.50005 0 0 1 28.492188 10.009766 A 0.50005 0.50005 0 0 1 28.853516 10.15625 L 32.853516 14.15625 A 0.50005 0.50005 0 0 1 33 14.517578 A 0.50005 0.50005 0 0 1 33 14.541016 L 33 17.501953 L 33 21.507812 A 0.50005 0.50005 0 1 1 32 21.507812 L 32 17.501953 L 32 15.009766 L 28.5 15.009766 A 0.50005 0.50005 0 0 1 28 14.509766 L 28 11.007812 L 14 11.007812 L 14 37.009766 L 17.6875 37.009766 L 22.998047 37.009766 L 32 37.009766 L 32 34.507812 A 0.50005 0.50005 0 1 1 33 34.507812 L 33 37.509766 A 0.50005 0.50005 0 0 1 32.5 38.009766 L 22.998047 38.009766 L 17.6875 38.009766 L 13.5 38.009766 A 0.50005 0.50005 0 0 1 13 37.509766 L 13 10.507812 A 0.50005 0.50005 0 0 1 13.5 10.007812 L 13.5 10 z M 29 11.716797 L 29 14.009766 L 31.292969 14.009766 L 29 11.716797 z M 16.449219 13.007812 A 0.50005 0.50005 0 0 1 16.5 13.007812 L 17.5 13.007812 A 0.50005 0.50005 0 1 1 17.5 14.007812 L 16.5 14.007812 A 0.50064427 0.50064427 0 0 1 16.449219 13.007812 z M 19.464844 13.007812 A 0.50005 0.50005 0 0 1 19.515625 13.007812 L 23.492188 13.007812 A 0.50005 0.50005 0 1 1 23.492188 14.007812 L 19.515625 14.007812 A 0.50064426 0.50064426 0 0 1 19.464844 13.007812 z M 16.449219 15.007812 A 0.50005 0.50005 0 0 1 16.5 15.007812 L 17.5 15.007812 A 0.50005 0.50005 0 1 1 17.5 16.007812 L 16.5 16.007812 A 0.50064427 0.50064427 0 0 1 16.449219 15.007812 z M 19.464844 15.007812 A 0.50005 0.50005 0 0 1 19.515625 15.007812 L 23.492188 15.007812 A 0.50005 0.50005 0 1 1 23.492188 16.007812 L 19.515625 16.007812 A 0.50064426 0.50064426 0 0 1 19.464844 15.007812 z M 20.492188 17.001953 A 0.50004997 0.50004997 0 0 1 21 17.507812 L 21 30.007812 L 22 30.007812 L 22 26.494141 A 0.50005 0.50005 0 0 1 22.5 25.994141 L 24.5 25.994141 A 0.50005 0.50005 0 0 1 25 26.494141 L 25 30.007812 L 26 30.007812 L 26 21.507812 A 0.50005 0.50005 0 0 1 26.5 21.007812 L 28.5 21.007812 A 0.50005 0.50005 0 0 1 29 21.507812 L 29 30.007812 L 30 30.007812 L 30 23.507812 A 0.50004997 0.50004997 0 0 1 30.5 23.007812 L 32.5 23.007812 A 0.50004997 0.50004997 0 0 1 33 23.507812 L 33 30.007812 L 34 30.007812 L 34 18.507812 A 0.50005 0.50005 0 0 1 34.5 18.007812 L 36.5 18.007812 A 0.50005 0.50005 0 0 1 37 18.507812 L 37 30.007812 L 37.5 30.007812 A 0.50004997 0.50004997 0 1 1 37.5 31.007812 L 20.5 31.007812 A 0.50004997 0.50004997 0 0 1 20 30.507812 L 20 17.507812 A 0.50004997 0.50004997 0 0 1 20.492188 17.001953 z M 35 19.007812 L 35 29.994141 L 36 29.994141 L 36 19.007812 L 35 19.007812 z M 27 22.007812 L 27 29.994141 L 28 29.994141 L 28 22.007812 L 27 22.007812 z M 31 24.007812 L 31 29.994141 L 32 29.994141 L 32 24.007812 L 31 24.007812 z M 23 26.994141 L 23 29.994141 L 24 29.994141 L 24 26.994141 L 23 26.994141 z M 23.449219 32.007812 A 0.50005 0.50005 0 0 1 23.5 32.007812 L 34.496094 32.007812 A 0.50005 0.50005 0 1 1 34.496094 33.007812 L 23.5 33.007812 A 0.50064426 0.50064426 0 1 1 23.449219 32.007812 z "
       transform="translate(0,1004.3622)"
       fill="#000000"
       fill-opacity="1"
       fill-rule="evenodd"
       stroke="none"
       id="path6" />
  </g>
</svg>
