<svg xmlns:dc="http://purl.org/dc/elements/1.1/" xmlns:cc="http://creativecommons.org/ns#"
     xmlns:rdf="http://www.w3.org/1999/02/22-rdf-syntax-ns#" xmlns:svg="http://www.w3.org/2000/svg"
     xmlns="http://www.w3.org/2000/svg" xmlns:sodipodi="http://sodipodi.sourceforge.net/DTD/sodipodi-0.dtd"
     xmlns:inkscape="http://www.inkscape.org/namespaces/inkscape" viewBox="0 0 48 60.00000125" version="1.1" x="0px"
     y="0px">
  <g transform="translate(0,-1004.3622)">
    <path style=""
          d="M 24 0 A 24 24 0 0 0 0 24 A 24 24 0 0 0 24 48 A 24 24 0 0 0 48 24 A 24 24 0 0 0 24 0 z M 24 8.9960938 C 25.058859 8.9960938 26 9.7520906 26 10.775391 C 26 10.851091 25.983086 10.922094 25.972656 10.996094 L 27.5 10.996094 A 0.50004997 0.50004997 0 0 1 28 11.496094 L 28 11.996094 L 28.199219 11.996094 L 32.535156 11.996094 L 34.5 11.996094 A 0.50005 0.50005 0 0 1 35 12.496094 L 35 38.496094 A 0.50005 0.50005 0 0 1 34.5 38.996094 L 13.5 38.996094 A 0.50005 0.50005 0 0 1 13 38.496094 L 13 12.496094 A 0.50005 0.50005 0 0 1 13.5 11.996094 L 15.5 11.996094 L 19.785156 11.996094 L 19.921875 11.996094 A 0.50005 0.50005 0 0 1 20 12.005859 L 20 11.5 A 0.50004997 0.50004997 0 0 1 20.5 11 L 22.027344 11 C 22.016924 10.9264 22 10.855297 22 10.779297 C 22 9.7559969 22.941134 9 24 9 L 24 8.9960938 z M 24 10 C 23.402006 10 23 10.389697 23 10.779297 C 23 10.876697 23.022766 10.968641 23.066406 11.056641 C 23.088166 11.100541 23.115458 11.143547 23.148438 11.185547 A 0.50005 0.50005 0 0 1 22.681641 12 L 21 12 L 21 13 L 27 13 L 27 12 L 25.316406 12 A 0.50005 0.50005 0 0 1 24.851562 11.185547 C 24.884583 11.143647 24.911954 11.100641 24.933594 11.056641 C 24.977264 10.968541 25 10.876297 25 10.779297 C 25 10.389697 24.597981 10 24 10 z M 20 12.990234 A 0.50005 0.50005 0 0 1 19.921875 13 L 19.75 13 L 16 13 L 16 36 L 29 36 L 29 33.5 A 0.50005 0.50005 0 0 1 29.5 33 L 32 33 L 32 13 L 28.25 13 L 28 13 L 28 13.5 A 0.50004997 0.50004997 0 0 1 27.5 14 L 20.5 14 A 0.50004997 0.50004997 0 0 1 20 13.5 L 20 12.994141 L 20 12.990234 z M 14 13.003906 L 14 13.007812 L 14 38.007812 L 34 38.007812 L 34 13.007812 L 33 13.007812 L 33 33.419922 A 0.50005 0.50005 0 0 1 32.998047 33.472656 A 0.50005 0.50005 0 0 1 32.853516 33.861328 L 29.853516 36.863281 A 0.50005 0.50005 0 0 1 29.433594 37.003906 A 0.50005 0.50005 0 0 1 29.373047 37.003906 L 15.5 37.003906 A 0.50005 0.50005 0 0 1 15 36.503906 L 15 13.003906 L 14 13.003906 z M 20.357422 16.003906 A 0.50005 0.50005 0 0 1 20.738281 16.853516 L 18.824219 18.851562 A 0.50005 0.50005 0 0 1 18.101562 18.851562 L 17.144531 17.853516 A 0.50075835 0.50075835 0 1 1 17.867188 17.160156 L 18.462891 17.78125 L 20.017578 16.162109 A 0.50005 0.50005 0 0 1 20.357422 16.003906 z M 22.441406 16.003906 A 0.50005 0.50005 0 0 1 22.492188 16.003906 L 30.492188 16.003906 A 0.50005 0.50005 0 1 1 30.492188 17.003906 L 22.492188 17.003906 A 0.50064429 0.50064429 0 0 1 22.441406 16.003906 z M 22.449219 18.001953 A 0.50004997 0.50004997 0 0 1 22.5 18.001953 L 26.5 18.001953 A 0.50004997 0.50004997 0 1 1 26.5 19.001953 L 22.5 19.001953 A 0.50064426 0.50064426 0 1 1 22.449219 18.001953 z M 20.357422 21.001953 A 0.50005 0.50005 0 0 1 20.738281 21.851562 L 18.824219 23.849609 A 0.50005 0.50005 0 0 1 18.101562 23.849609 L 17.144531 22.851562 A 0.50075835 0.50075835 0 1 1 17.867188 22.158203 L 18.462891 22.779297 L 20.017578 21.160156 A 0.50005 0.50005 0 0 1 20.357422 21.001953 z M 22.441406 21.001953 A 0.50005 0.50005 0 0 1 22.492188 21.001953 L 30.492188 21.001953 A 0.50005 0.50005 0 1 1 30.492188 22.001953 L 22.492188 22.001953 A 0.50064429 0.50064429 0 0 1 22.441406 21.001953 z M 22.599609 23 A 0.50005 0.50005 0 0 1 22.650391 23 L 28 23 A 0.50005 0.50005 0 1 1 28 24 L 22.650391 24 A 0.50064429 0.50064429 0 0 1 22.599609 23 z M 18.5 26 C 19.322353 26 20 26.6777 20 27.5 C 20 28.3224 19.322353 29 18.5 29 C 17.677646 29 17 28.3224 17 27.5 C 17 26.6777 17.677646 26 18.5 26 z M 22.441406 26 A 0.50005 0.50005 0 0 1 22.492188 26 L 30.492188 26 A 0.50005 0.50005 0 1 1 30.492188 27 L 22.492188 27 A 0.50064429 0.50064429 0 0 1 22.441406 26 z M 18.5 27 C 18.214344 27 18 27.2144 18 27.5 C 18 27.7857 18.214344 28 18.5 28 C 18.785655 28 19 27.7857 19 27.5 C 19 27.2144 18.785655 27 18.5 27 z M 22.449219 28 A 0.50004997 0.50004997 0 0 1 22.5 28 L 24.5 28 A 0.50004997 0.50004997 0 1 1 24.5 29 L 22.5 29 A 0.50064426 0.50064426 0 1 1 22.449219 28 z M 18.5 31 C 19.322353 31 20 31.6777 20 32.5 C 20 33.3224 19.322353 34 18.5 34 C 17.677646 34 17 33.3224 17 32.5 C 17 31.6777 17.677646 31 18.5 31 z M 22.449219 31 A 0.50004997 0.50004997 0 0 1 22.5 31 L 30.5 31 A 0.50004997 0.50004997 0 1 1 30.5 32 L 22.5 32 A 0.50064426 0.50064426 0 1 1 22.449219 31 z M 18.5 32 C 18.214344 32 18 32.2144 18 32.5 C 18 32.7857 18.214344 33 18.5 33 C 18.785655 33 19 32.7857 19 32.5 C 19 32.2144 18.785655 32 18.5 32 z M 22.449219 33 A 0.50004997 0.50004997 0 0 1 22.5 33 L 23.5 33 A 0.50004997 0.50004997 0 1 1 23.5 34 L 22.5 34 A 0.50064426 0.50064426 0 1 1 22.449219 33 z M 30 34 L 30 35.292969 L 31.292969 34 L 30 34 z "
          transform="translate(0,1004.3622)" fill="#000000" fill-opacity="1" fill-rule="evenodd" stroke="none" />
  </g>
  <text x="0" y="63.000001" fill="#000000" font-size="5px" font-weight="bold"
        font-family="'Helvetica Neue', Helvetica, Arial-Unicode, Arial, Sans-serif">
    Created by Chameleon Design
  </text>
  <text x="0" y="68.000001" fill="#000000" font-size="5px" font-weight="bold"
        font-family="'Helvetica Neue', Helvetica, Arial-Unicode, Arial, Sans-serif">
    from the Noun Project
  </text>
</svg>