<svg xmlns:dc="http://purl.org/dc/elements/1.1/" xmlns:cc="http://creativecommons.org/ns#" xmlns:rdf="http://www.w3.org/1999/02/22-rdf-syntax-ns#" xmlns:svg="http://www.w3.org/2000/svg" xmlns="http://www.w3.org/2000/svg" xmlns:sodipodi="http://sodipodi.sourceforge.net/DTD/sodipodi-0.dtd" xmlns:inkscape="http://www.inkscape.org/namespaces/inkscape" viewBox="0 0 48 60.00000125" version="1.1" x="0px" y="0px">
    <g transform="translate(0,-1004.3622)"><path style="" d="M 24 0 A 24 24 0 0 0 0 24 A 24 24 0 0 0 24 48 A 24 24 0 0 0 48 24 A 24 24 0 0 0 24 0 z M 29 11.5 C 29.822505 11.5 30.5 12.1775 30.5 13 C 30.5 13.8225 29.822505 14.5 29 14.5 C 28.177495 14.5 27.5 13.8225 27.5 13 C 27.5 12.1775 28.177495 11.5 29 11.5 z M 20 12.5 C 20.822505 12.5 21.5 13.1775 21.5 14 C 21.5 14.8225 20.822505 15.5 20 15.5 C 19.177495 15.5 18.5 14.8225 18.5 14 C 18.5 13.1775 19.177495 12.5 20 12.5 z M 29 12.5 C 28.717935 12.5 28.5 12.718 28.5 13 C 28.5 13.2821 28.717935 13.5 29 13.5 C 29.282065 13.5 29.5 13.2821 29.5 13 C 29.5 12.718 29.282065 12.5 29 12.5 z M 20 13.5 C 19.717935 13.5 19.5 13.718 19.5 14 C 19.5 14.2821 19.717935 14.5 20 14.5 C 20.282065 14.5 20.5 14.2821 20.5 14 C 20.5 13.718 20.282065 13.5 20 13.5 z M 25 13.5 C 25.822505 13.5 26.5 14.1775 26.5 15 C 26.5 15.8225 25.822505 16.5 25 16.5 C 24.177495 16.5 23.5 15.8225 23.5 15 C 23.5 14.1775 24.177495 13.5 25 13.5 z M 25 14.5 C 24.717935 14.5 24.5 14.718 24.5 15 C 24.5 15.2821 24.717935 15.5 25 15.5 C 25.282065 15.5 25.5 15.2821 25.5 15 C 25.5 14.718 25.282065 14.5 25 14.5 z M 16.5 18 L 31.5 18 A 0.50004997 0.50004997 0 0 1 31.869141 18.839844 L 25.642578 25.619141 L 25.496094 33.509766 A 0.50004997 0.50004997 0 0 1 24.679688 33.888672 L 22.613281 32.208984 A 0.50004997 0.50004997 0 0 1 22.427734 31.820312 L 22.427734 25.617188 L 16.132812 18.841797 A 0.50004997 0.50004997 0 0 1 16.5 18 z M 17.646484 19 L 23.294922 25.080078 A 0.50004997 0.50004997 0 0 1 23.427734 25.421875 L 23.427734 31.583984 L 24.515625 32.466797 L 24.646484 25.412109 A 0.50004997 0.50004997 0 0 1 24.779297 25.082031 L 30.361328 19 L 17.646484 19 z M 24 35 C 24.822505 35 25.5 35.6775 25.5 36.5 C 25.5 37.3225 24.822505 38 24 38 C 23.177495 38 22.5 37.3225 22.5 36.5 C 22.5 35.6775 23.177495 35 24 35 z M 24 36 C 23.717935 36 23.5 36.218 23.5 36.5 C 23.5 36.7821 23.717935 37 24 37 C 24.282065 37 24.5 36.7821 24.5 36.5 C 24.5 36.218 24.282065 36 24 36 z " transform="translate(0,1004.3622)" fill="#000000" fill-opacity="1" fill-rule="evenodd" stroke="none" /></g>
    <text x="0" y="63.000001" fill="#000000" font-size="5px" font-weight="bold" font-family="'Helvetica Neue', Helvetica, Arial-Unicode, Arial, Sans-serif">Created by Chameleon Design</text>
    <text x="0" y="68.000001" fill="#000000" font-size="5px" font-weight="bold" font-family="'Helvetica Neue', Helvetica, Arial-Unicode, Arial, Sans-serif">from the Noun Project</text>
</svg>