<svg xmlns:dc="http://purl.org/dc/elements/1.1/" xmlns:cc="http://creativecommons.org/ns#"
     xmlns:rdf="http://www.w3.org/1999/02/22-rdf-syntax-ns#" xmlns:svg="http://www.w3.org/2000/svg"
     xmlns="http://www.w3.org/2000/svg" xmlns:sodipodi="http://sodipodi.sourceforge.net/DTD/sodipodi-0.dtd"
     xmlns:inkscape="http://www.inkscape.org/namespaces/inkscape" viewBox="0 0 48 60.00000125" version="1.1" x="0px"
     y="0px">
  <g transform="translate(0,-1004.3622)">
    <path style=""
          d="M 24 0 A 24 24 0 0 0 0 24 A 24 24 0 0 0 24 48 A 24 24 0 0 0 48 24 A 24 24 0 0 0 24 0 z M 28.488281 11.003906 C 30.460144 10.942506 32.460938 11.474512 34.205078 12.632812 C 38.143598 15.248412 39.636477 20.305719 37.78125 24.636719 L 38.992188 30.396484 A 0.50005006 0.50005006 0 0 1 38.363281 30.978516 L 33.228516 29.498047 C 30.777649 30.746747 28.008194 30.867659 25.550781 30.005859 C 25.263388 30.849259 24.844411 31.659938 24.275391 32.398438 C 21.834728 35.566137 17.484399 36.535987 13.931641 34.742188 L 9.640625 35.980469 A 0.50005 0.50005 0 0 1 9.0117188 35.396484 L 10.023438 30.566406 C 8.4636253 26.890706 9.7358203 22.604719 13.076172 20.386719 C 14.770804 19.261419 16.749588 18.830788 18.652344 19.054688 C 18.818101 19.073688 18.982113 19.105766 19.146484 19.134766 C 19.458931 17.305966 20.28697 15.550628 21.628906 14.111328 C 23.260538 12.361128 25.40876 11.329606 27.646484 11.066406 C 27.9262 11.034406 28.206586 11.013906 28.488281 11.003906 z M 28.519531 11.996094 C 26.244465 12.066594 24.011898 13.020516 22.361328 14.791016 C 21.139049 16.102116 20.392996 17.700034 20.121094 19.365234 C 21.478861 19.781134 22.745031 20.543778 23.769531 21.642578 C 23.875917 21.756678 23.971463 21.877494 24.070312 21.996094 L 34.494141 21.996094 A 0.50005 0.50005 0 1 1 34.494141 22.996094 L 24.787109 22.996094 C 25.898795 24.823094 26.254176 26.991816 25.822266 29.041016 C 28.098554 29.857416 30.680145 29.741244 32.943359 28.527344 A 0.50005006 0.50005006 0 0 1 33.167969 28.466797 A 0.50005006 0.50005006 0 0 1 33.333984 28.490234 A 0.50006212 0.50006212 0 0 1 33.392578 28.503906 L 37.841797 29.789062 L 36.78125 24.736328 A 0.50005006 0.50005006 0 0 1 36.777344 24.712891 A 0.50005171 0.50005171 0 0 1 36.806641 24.386719 C 38.569928 20.461419 37.237151 15.845544 33.652344 13.464844 C 32.083997 12.423244 30.289027 11.943047 28.519531 11.998047 L 28.519531 11.996094 z M 23.458984 15.998047 A 0.50004997 0.50004997 0 0 1 23.509766 15.998047 L 34.490234 15.998047 A 0.50004997 0.50004997 0 1 1 34.490234 16.998047 L 23.509766 16.998047 A 0.50064426 0.50064426 0 0 1 23.458984 15.998047 z M 23.458984 18.998047 A 0.50004997 0.50004997 0 0 1 23.509766 18.998047 L 34.490234 18.998047 A 0.50004997 0.50004997 0 1 1 34.490234 19.998047 L 23.509766 19.998047 A 0.50064426 0.50064426 0 0 1 23.458984 18.998047 z M 17.90625 19.998047 C 16.432121 19.952247 14.935898 20.35085 13.628906 21.21875 C 10.641517 23.20245 9.5325432 27.047459 11.001953 30.318359 A 0.50040026 0.50044184 60.00325 0 1 11.025391 30.652344 A 0.50005 0.50005 0 0 1 11.025391 30.662109 L 10.162109 34.789062 L 13.78125 33.744141 A 0.50011012 0.50011012 0 0 1 13.822266 33.734375 A 0.50049558 0.50053716 60.00325 0 1 14.21875 33.769531 C 17.379083 35.464431 21.293865 34.627609 23.482422 31.787109 C 25.670989 28.946609 25.482492 24.948972 23.037109 22.326172 C 21.661582 20.850872 19.801559 20.057047 17.90625 19.998047 z M 13.458984 23.998047 A 0.50004997 0.50004997 0 0 1 13.509766 23.998047 L 22.494141 23.998047 A 0.50004997 0.50004997 0 1 1 22.494141 24.998047 L 13.509766 24.998047 A 0.50064427 0.50064427 0 0 1 13.458984 23.998047 z M 27.242188 24.998047 A 0.50004994 0.50004994 0 0 1 27.292969 24.998047 L 29.697266 24.998047 A 0.50004994 0.50004994 0 1 1 29.697266 25.998047 L 27.292969 25.998047 A 0.50064429 0.50064429 0 0 1 27.242188 24.998047 z M 13.458984 26.998047 A 0.50004997 0.50004997 0 0 1 13.509766 26.998047 L 22.494141 26.998047 A 0.50004997 0.50004997 0 1 1 22.494141 27.998047 L 13.509766 27.998047 A 0.50064427 0.50064427 0 0 1 13.458984 26.998047 z M 13.451172 29.998047 A 0.50004994 0.50004994 0 0 1 13.501953 29.998047 L 17.501953 29.998047 A 0.50004994 0.50004994 0 1 1 17.501953 30.998047 L 13.501953 30.998047 A 0.50064427 0.50064427 0 0 1 13.451172 29.998047 z "
          transform="translate(0,1004.3622)" fill="#000000" fill-opacity="1" fill-rule="evenodd" stroke="none" />
  </g>
  <text x="0" y="63.000001" fill="#000000" font-size="5px" font-weight="bold"
        font-family="'Helvetica Neue', Helvetica, Arial-Unicode, Arial, Sans-serif">
    Created by Chameleon Design
  </text>
  <text x="0" y="68.000001" fill="#000000" font-size="5px" font-weight="bold"
        font-family="'Helvetica Neue', Helvetica, Arial-Unicode, Arial, Sans-serif">
    from the Noun Project
  </text>
</svg>