<?xml version="1.0" encoding="UTF-8" standalone="no"?>
<svg
   xmlns:dc="http://purl.org/dc/elements/1.1/"
   xmlns:cc="http://creativecommons.org/ns#"
   xmlns:rdf="http://www.w3.org/1999/02/22-rdf-syntax-ns#"
   xmlns:svg="http://www.w3.org/2000/svg"
   xmlns="http://www.w3.org/2000/svg"
   xmlns:sodipodi="http://sodipodi.sourceforge.net/DTD/sodipodi-0.dtd"
   xmlns:inkscape="http://www.inkscape.org/namespaces/inkscape"
   viewBox="0 0 48 48"
   version="1.1"
   x="0px"
   y="0px"
   id="svg2"
   inkscape:version="0.91 r13725"
   sodipodi:docname="networking.svg">
  <metadata
     id="metadata16">
    <rdf:RDF>
      <cc:Work
         rdf:about="">
        <dc:format>image/svg+xml</dc:format>
        <dc:type
           rdf:resource="http://purl.org/dc/dcmitype/StillImage" />
        <dc:title></dc:title>
      </cc:Work>
    </rdf:RDF>
  </metadata>
  <defs
     id="defs14" />
  <sodipodi:namedview
     pagecolor="#ffffff"
     bordercolor="#666666"
     borderopacity="1"
     objecttolerance="10"
     gridtolerance="10"
     guidetolerance="10"
     inkscape:pageopacity="0"
     inkscape:pageshadow="2"
     inkscape:window-width="640"
     inkscape:window-height="480"
     id="namedview12"
     showgrid="false"
     inkscape:zoom="3.9333333"
     inkscape:cx="24"
     inkscape:cy="30"
     inkscape:window-x="0"
     inkscape:window-y="0"
     inkscape:window-maximized="0"
     inkscape:current-layer="svg2" />
  <g
     transform="translate(0,-1004.3622)"
     id="g4">
    <path
       style=""
       d="M 24 0 A 24 24 0 0 0 0 24 A 24 24 0 0 0 24 48 A 24 24 0 0 0 48 24 A 24 24 0 0 0 24 0 z M 25 9 C 26.650933 9 27.999991 10.3491 28 12 C 27.999999 12.2615 27.956128 12.509653 27.892578 12.751953 L 33.087891 19.041016 C 33.222756 19.018016 33.358933 19 33.5 19 C 34.874791 19 35.99999 20.1252 36 21.5 C 35.999993 22.4369 35.471187 23.247881 34.703125 23.675781 L 35.560547 31.005859 C 36.907012 31.039059 37.99999 32.1459 38 33.5 C 37.99999 34.8748 36.874791 36 35.5 36 C 34.595774 36 33.806339 35.507603 33.367188 34.783203 L 22.914062 37.115234 C 22.636677 38.193234 21.661279 39 20.5 39 C 19.135271 39 18.020216 37.890397 18.003906 36.529297 L 14.25 34.279297 C 13.798085 34.723897 13.179968 35 12.5 35 C 11.125209 35 10.00001 33.8748 10 32.5 C 10.000009 31.3228 10.827433 30.333666 11.927734 30.072266 L 12.511719 21.792969 C 11.625128 21.407669 11.000008 20.524 11 19.5 C 11.00001 18.1252 12.125209 17 13.5 17 C 13.874514 17 14.227107 17.088981 14.546875 17.238281 L 22.015625 12.148438 C 22.013085 12.098037 22 12.051 22 12 C 22.000009 10.3491 23.349067 9 25 9 z M 25 10 C 23.889505 10 23.000006 10.8895 23 12 C 23.000006 13.1105 23.889505 14 25 14 C 26.110495 14 26.999994 13.1105 27 12 C 26.999994 10.8895 26.110495 10 25 10 z M 22.253906 13.195312 L 15.384766 17.876953 C 15.763079 18.315353 15.999995 18.8791 16 19.5 C 15.999997 19.8452 15.928836 20.172756 15.800781 20.472656 L 19.542969 22.464844 C 19.955811 21.940444 20.569023 21.589438 21.267578 21.523438 L 23.621094 14.644531 C 23.017507 14.327731 22.529126 13.822312 22.253906 13.195312 z M 27.421875 13.751953 C 26.875505 14.503453 25.995621 15 25 15 C 24.853718 15 24.713081 14.975078 24.572266 14.955078 L 22.285156 21.638672 C 23.195092 21.943972 23.867316 22.753828 23.972656 23.736328 L 31.039062 21.878906 C 31.019753 21.754306 31.000001 21.6297 31 21.5 C 31.000006 20.6392 31.442062 19.875881 32.109375 19.425781 L 27.421875 13.751953 z M 13.5 18 C 12.665647 18 12.000006 18.6657 12 19.5 C 12.000006 20.3344 12.665647 21 13.5 21 C 14.334353 21 14.999994 20.3344 15 19.5 C 14.999994 18.6657 14.334353 18 13.5 18 z M 33.5 20 C 32.665647 20 32.000006 20.6657 32 21.5 C 32.000006 22.3344 32.665647 23 33.5 23 C 34.334353 23 34.999994 22.3344 35 21.5 C 34.999994 20.6657 34.334353 20 33.5 20 z M 15.224609 21.298828 C 14.774806 21.730328 14.168509 22 13.5 22 L 13.498047 22 L 12.931641 30.042969 C 14.101769 30.249769 14.999991 31.273 15 32.5 C 14.999997 32.8365 14.930601 33.155419 14.808594 33.449219 L 18.216797 35.492188 C 18.5833 34.668688 19.383433 34.085578 20.322266 34.017578 L 20.494141 26.283203 C 19.617396 25.893703 19.000007 25.0168 19 24 C 19 23.7772 19.03835 23.563422 19.09375 23.357422 L 15.224609 21.298828 z M 21.5 22.5 C 20.665647 22.5 20.000006 23.1657 20 24 C 20.000006 24.8344 20.665647 25.5 21.5 25.5 C 22.334353 25.5 22.999994 24.8344 23 24 C 22.999994 23.1657 22.334353 22.5 21.5 22.5 z M 31.388672 22.822266 L 23.855469 24.800781 C 23.517938 25.783081 22.592933 26.5 21.5 26.5 L 21.490234 26.5 L 21.320312 34.150391 C 22.164966 34.447891 22.802731 35.179278 22.957031 36.080078 L 33.033203 33.833984 C 33.018143 33.723584 33.000001 33.6143 33 33.5 C 33.000008 32.4518 33.656093 31.553494 34.576172 31.183594 L 33.732422 23.974609 C 33.654659 23.981609 33.57961 24 33.5 24 C 32.611598 24 31.832344 23.525666 31.388672 22.822266 z M 12.5 31 C 11.665647 31 11.000006 31.6657 11 32.5 C 11.000006 33.3344 11.665647 34 12.5 34 C 13.334353 34 13.999994 33.3344 14 32.5 C 13.999994 31.6657 13.334353 31 12.5 31 z M 35.5 32 C 34.665647 32 34.000006 32.6657 34 33.5 C 34.000006 34.3344 34.665647 35 35.5 35 C 36.334353 35 36.999994 34.3344 37 33.5 C 36.999994 32.6657 36.334353 32 35.5 32 z M 20.5 35 C 19.665647 35 19.000006 35.6657 19 36.5 C 19.000006 37.3344 19.665647 38 20.5 38 C 21.334353 38 21.999994 37.3344 22 36.5 C 21.999994 35.6657 21.334353 35 20.5 35 z "
       transform="translate(0,1004.3622)"
       fill="#000000"
       fill-opacity="1"
       fill-rule="evenodd"
       stroke="none"
       id="path6" />
  </g>
</svg>
