<svg xmlns:dc="http://purl.org/dc/elements/1.1/" xmlns:cc="http://creativecommons.org/ns#" xmlns:rdf="http://www.w3.org/1999/02/22-rdf-syntax-ns#" xmlns:svg="http://www.w3.org/2000/svg" xmlns="http://www.w3.org/2000/svg" xmlns:sodipodi="http://sodipodi.sourceforge.net/DTD/sodipodi-0.dtd" xmlns:inkscape="http://www.inkscape.org/namespaces/inkscape" viewBox="0 0 48 60.0000025" version="1.1" x="0px" y="0px"><g transform="translate(0,-1004.3622)"><path style="" d="M 24 0 A 23.999999 23.999999 0 0 0 0 24 A 23.999999 23.999999 0 0 0 24 48 A 23.999999 23.999999 0 0 0 48 24 A 23.999999 23.999999 0 0 0 24 0 z M 17.511719 11.984375 L 30.511719 11.984375 L 31.011719 12 L 31.011719 14.484375 C 31.011691 14.760475 30.78785 14.984375 30.511719 14.984375 L 17.511719 14.984375 C 17.235588 14.984375 17.000028 14.760475 17 14.484375 L 17.011719 12.484375 C 17.011747 12.208275 17.235588 11.984375 17.511719 11.984375 z M 18 12.984375 L 18 13.984375 L 27.5 13.984375 L 27.5 12.984375 L 18 12.984375 z M 28.5 12.984375 L 28.5 13.984375 L 30 13.984375 L 30 12.984375 L 28.5 12.984375 z M 24 15.978516 C 26.468148 15.978516 28.476544 18.000716 28.476562 20.478516 C 28.476587 21.902016 27.801569 23.158675 26.769531 23.984375 L 27.041016 23.984375 C 30.334556 23.984375 33 26.662397 33 29.966797 L 33 35.488281 C 32.999972 35.764381 32.776131 35.988281 32.5 35.988281 L 29.59375 35.988281 C 29.529911 36.001281 29.464231 36.001281 29.400391 35.988281 L 27.095703 35.988281 L 20.869141 35.988281 L 18.548828 35.988281 C 18.478059 36.004281 18.404754 36.004281 18.333984 35.988281 L 15.5 35.988281 C 15.223869 35.988281 15.000027 35.764381 15 35.488281 L 15 29.966797 C 15 26.662397 17.665444 23.984375 20.958984 23.984375 L 21.230469 23.984375 C 20.198431 23.158675 19.523413 21.902016 19.523438 20.478516 C 19.523457 18.000716 21.531852 15.978516 24 15.978516 z M 24 16.978516 C 22.075421 16.978516 20.523451 18.538016 20.523438 20.478516 C 20.523404 22.418916 22.075386 23.978516 24 23.978516 C 25.924614 23.978516 27.476595 22.418916 27.476562 20.478516 C 27.476548 18.538016 25.924579 16.978516 24 16.978516 z M 20.958984 24.984375 C 18.204507 24.984375 16 27.196697 16 29.966797 L 16 34.988281 L 17.941406 34.988281 L 17.941406 32.478516 C 17.937085 32.202416 18.157449 31.970703 18.433594 31.970703 C 18.71586 31.966303 18.945806 32.196316 18.941406 32.478516 L 18.941406 34.988281 L 20.904297 34.988281 L 27.095703 34.988281 L 27.130859 34.988281 L 29 34.988281 L 29 32.474609 C 28.996766 32.199309 29.216815 31.96875 29.492188 31.96875 C 29.773676 31.96435 30.0033 32.193109 30 32.474609 L 30 34.988281 L 32 34.988281 L 32 29.966797 C 32 27.196697 29.795493 24.984375 27.041016 24.984375 L 25.341797 24.984375 L 25.707031 30.316406 C 25.717886 30.466606 25.66049 30.613697 25.550781 30.716797 L 24.341797 31.849609 C 24.149506 32.029709 23.850494 32.029709 23.658203 31.849609 L 22.449219 30.716797 C 22.339509 30.613697 22.282119 30.466606 22.292969 30.316406 L 22.658203 24.984375 L 20.958984 24.984375 z M 23.662109 24.984375 L 23.306641 30.148438 L 24 30.798828 L 24.693359 30.148438 L 24.339844 24.984375 L 23.662109 24.984375 z " transform="translate(-1.9073487e-6,1004.3622)" fill="#000000" fill-opacity="1" fill-rule="evenodd" stroke="none"/></g><text x="0" y="63.000002" fill="#000000" font-size="5px" font-weight="bold" font-family="'Helvetica Neue', Helvetica, Arial-Unicode, Arial, Sans-serif">Created by Chameleon Design</text><text x="0" y="68.000002" fill="#000000" font-size="5px" font-weight="bold" font-family="'Helvetica Neue', Helvetica, Arial-Unicode, Arial, Sans-serif">from the Noun Project</text></svg>