<svg xmlns:dc="http://purl.org/dc/elements/1.1/" xmlns:cc="http://creativecommons.org/ns#"
     xmlns:rdf="http://www.w3.org/1999/02/22-rdf-syntax-ns#" xmlns:svg="http://www.w3.org/2000/svg"
     xmlns="http://www.w3.org/2000/svg" xmlns:sodipodi="http://sodipodi.sourceforge.net/DTD/sodipodi-0.dtd"
     xmlns:inkscape="http://www.inkscape.org/namespaces/inkscape" viewBox="0 0 48 60.00000125" version="1.1" x="0px"
     y="0px">
  <g transform="translate(0,-1004.3622)">
    <path style=""
          d="M 24 0 A 24 24 0 0 0 0 24 A 24 24 0 0 0 24 48 A 24 24 0 0 0 48 24 A 24 24 0 0 0 24 0 z M 36.523438 9 A 0.50004997 0.50004997 0 0 1 36.974609 9.3417969 L 37.394531 10.605469 L 38.658203 11.025391 A 0.50004997 0.50004997 0 0 1 38.853516 11.853516 L 35.853516 14.853516 A 0.50004997 0.50004997 0 0 1 35.341797 14.974609 L 34.134766 14.572266 L 30.994141 17.712891 C 32.980956 19.869191 34.205095 22.739137 34.205078 25.898438 C 34.205056 32.576337 28.779453 38 22.101562 38 C 15.423676 38 10.000023 32.576337 10 25.898438 C 9.999965 19.220438 15.423635 13.796875 22.101562 13.796875 C 25.260867 13.796875 28.1303 15.019459 30.287109 17.005859 L 33.427734 13.865234 L 33.025391 12.658203 A 0.50004997 0.50004997 0 0 1 33.146484 12.146484 L 36.146484 9.1464844 A 0.50004997 0.50004997 0 0 1 36.474609 9.0019531 A 0.50004997 0.50004997 0 0 1 36.523438 9.0019531 L 36.523438 9 z M 36.28125 10.427734 L 34.072266 12.636719 L 34.396484 13.607422 L 35.365234 13.929688 L 37.574219 11.720703 L 36.841797 11.476562 A 0.50004997 0.50004997 0 0 1 36.525391 11.160156 L 36.28125 10.427734 z M 22.101562 14.798828 C 15.964077 14.798828 10.999968 19.762891 11 25.900391 C 11.000021 32.037791 15.964115 37.001953 22.101562 37.001953 C 28.239014 37.001953 33.205057 32.037791 33.205078 25.900391 C 33.205093 23.011791 32.0955 20.391569 30.291016 18.417969 L 28.859375 19.851562 A 9.0799257 9.0799257 0 0 1 31.181641 25.900391 A 9.0799257 9.0799257 0 0 1 22.101562 34.978516 A 9.0799257 9.0799257 0 0 1 13.021484 25.900391 A 9.0799257 9.0799257 0 0 1 22.101562 16.820312 A 9.0799257 9.0799257 0 0 1 28.152344 19.142578 L 29.583984 17.710938 C 27.609952 15.906938 24.990188 14.798828 22.101562 14.798828 z M 22.101562 18.837891 A 7.0621669 7.0621669 0 0 0 15.039062 25.900391 A 7.0621669 7.0621669 0 0 0 22.101562 32.960938 A 7.0621669 7.0621669 0 0 0 29.164062 25.900391 A 7.0621669 7.0621669 0 0 0 27.435547 21.275391 L 26.003906 22.707031 A 5.0444195 5.0444195 0 0 1 27.146484 25.900391 A 5.0444195 5.0444195 0 0 1 22.101562 30.943359 A 5.0444195 5.0444195 0 0 1 17.058594 25.900391 A 5.0444195 5.0444195 0 0 1 22.101562 20.855469 A 5.0444195 5.0444195 0 0 1 25.296875 22 L 26.724609 20.572266 A 7.0621669 7.0621669 0 0 0 22.101562 18.837891 z M 22.101562 22.873047 A 3.0266448 3.0266448 0 0 0 19.076172 25.900391 A 3.0266448 3.0266448 0 0 0 22.101562 28.925781 A 3.0266448 3.0266448 0 0 0 25.128906 25.900391 A 3.0266448 3.0266448 0 0 0 24.564453 24.144531 L 23.060547 25.650391 C 23.081837 25.731991 23.111328 25.812391 23.111328 25.900391 C 23.111328 26.457591 22.658759 26.908203 22.101562 26.908203 C 21.544377 26.908203 21.09376 26.457591 21.09375 25.900391 C 21.09376 25.343191 21.544377 24.890625 22.101562 24.890625 C 22.191587 24.890625 22.272409 24.919406 22.355469 24.941406 L 23.857422 23.439453 A 3.0266448 3.0266448 0 0 0 22.101562 22.873047 z "
          transform="translate(0,1004.3622)" fill="#000000" fill-opacity="1" fill-rule="evenodd" stroke="none" />
  </g>
  <text x="0" y="63.000001" fill="#000000" font-size="5px" font-weight="bold"
        font-family="'Helvetica Neue', Helvetica, Arial-Unicode, Arial, Sans-serif">
    Created by Chameleon Design
  </text>
  <text x="0" y="68.000001" fill="#000000" font-size="5px" font-weight="bold"
        font-family="'Helvetica Neue', Helvetica, Arial-Unicode, Arial, Sans-serif">
    from the Noun Project
  </text>
</svg>