<?xml version="1.0" encoding="UTF-8" standalone="no"?>
<svg
   xmlns:dc="http://purl.org/dc/elements/1.1/"
   xmlns:cc="http://creativecommons.org/ns#"
   xmlns:rdf="http://www.w3.org/1999/02/22-rdf-syntax-ns#"
   xmlns:svg="http://www.w3.org/2000/svg"
   xmlns="http://www.w3.org/2000/svg"
   xmlns:sodipodi="http://sodipodi.sourceforge.net/DTD/sodipodi-0.dtd"
   xmlns:inkscape="http://www.inkscape.org/namespaces/inkscape"
   viewBox="0 0 48 48"
   version="1.1"
   x="0px"
   y="0px"
   id="svg2"
   inkscape:version="0.91 r13725"
   sodipodi:docname="project.svg">
  <metadata
     id="metadata16">
    <rdf:RDF>
      <cc:Work
         rdf:about="">
        <dc:format>image/svg+xml</dc:format>
        <dc:type
           rdf:resource="http://purl.org/dc/dcmitype/StillImage" />
        <dc:title></dc:title>
      </cc:Work>
    </rdf:RDF>
  </metadata>
  <defs
     id="defs14" />
  <sodipodi:namedview
     pagecolor="#ffffff"
     bordercolor="#666666"
     borderopacity="1"
     objecttolerance="10"
     gridtolerance="10"
     guidetolerance="10"
     inkscape:pageopacity="0"
     inkscape:pageshadow="2"
     inkscape:window-width="1920"
     inkscape:window-height="1017"
     id="namedview12"
     showgrid="false"
     inkscape:zoom="3.9333333"
     inkscape:cx="-35.491525"
     inkscape:cy="30"
     inkscape:window-x="-8"
     inkscape:window-y="-8"
     inkscape:window-maximized="1"
     inkscape:current-layer="svg2" />
  <g
     transform="translate(0,-1004.3622)"
     id="g4">
    <path
       style="fill:#000000;fill-opacity:1;fill-rule:evenodd;stroke:none"
       d="M 24,0 A 24,24 0 0 0 0,24 24,24 0 0 0 24,48 24,24 0 0 0 48,24 24,24 0 0 0 24,0 Z m -8.501953,10 a 0.50005,0.50005 0 0 1 0.507812,0.507812 l 0,1.492188 15,0 0,-1.492188 A 0.50005,0.50005 0 0 1 31.498047,10 a 0.50005,0.50005 0 0 1 0.507812,0.507812 l 0,1.492188 4.50586,0 a 0.50005,0.50005 0 0 1 0.5,0.5 l 0,4.5 -1,0 0,-4 -4.00586,0 0,1.091797 c 0.579028,0.2085 1,0.761403 1,1.408203 0,0.8225 -0.677496,1.5 -1.5,1.5 -0.822504,0 -1.5,-0.6775 -1.5,-1.5 0,-0.6468 0.420973,-1.199703 1,-1.408203 l 0,-1.091797 -15,0 0,1.091797 c 0.579028,0.2085 1,0.761403 1,1.408203 0,0.8225 -0.677495,1.5 -1.5,1.5 -0.822505,0 -1.5,-0.6775 -1.5,-1.5 0,-0.6468 0.420972,-1.199703 1,-1.408203 L 15.005859,13 11,13 l 0,4 -1,0 0,-4.5 A 0.50005,0.50005 0 0 1 10.5,12 l 4.505859,0 0,-1.492188 A 0.50005,0.50005 0 0 1 15.498047,10 Z m -0.04687,5.009766 c -0.253604,0.0274 -0.445313,0.227734 -0.445313,0.490234 0,0.2821 0.217935,0.5 0.5,0.5 0.282065,0 0.5,-0.2179 0.5,-0.5 0,-0.2631 -0.192676,-0.463234 -0.447265,-0.490234 a 0.50005,0.50005 0 0 1 -0.107422,0 z m 16,0 c -0.253604,0.0274 -0.445313,0.227734 -0.445313,0.490234 0,0.2821 0.217936,0.5 0.5,0.5 0.282065,0 0.5,-0.2179 0.5,-0.5 0,-0.2631 -0.192676,-0.463234 -0.447265,-0.490234 a 0.50005,0.50005 0 0 1 -0.107422,0 z M 10.505859,18 l 26,0 a 0.50004994,0.50004994 0 0 1 0.5,0.5 l 0,18 a 0.50004994,0.50004994 0 0 1 -0.5,0.5 l -26,0 a 0.50004994,0.50004994 0 0 1 -0.5,-0.5 l 0,-18 a 0.50004994,0.50004994 0 0 1 0.5,-0.5 z m 0.5,1 0,17 25,0 0,-17 -25,0 z m 9.5,1 2,0 a 0.50004997,0.50004997 0 0 1 0.5,0.5 l 0,2 a 0.50004997,0.50004997 0 0 1 -0.5,0.5 l -2,0 a 0.50004997,0.50004997 0 0 1 -0.5,-0.5 l 0,-2 a 0.50004997,0.50004997 0 0 1 0.5,-0.5 z m 4,0 2,0 a 0.50004997,0.50004997 0 0 1 0.5,0.5 l 0,2 a 0.50004997,0.50004997 0 0 1 -0.5,0.5 l -2,0 a 0.50004997,0.50004997 0 0 1 -0.5,-0.5 l 0,-2 a 0.50004997,0.50004997 0 0 1 0.5,-0.5 z m 4,0 2,0 a 0.50004997,0.50004997 0 0 1 0.5,0.5 l 0,2 a 0.50004997,0.50004997 0 0 1 -0.5,0.5 l -2,0 a 0.50004997,0.50004997 0 0 1 -0.5,-0.5 l 0,-2 a 0.50004997,0.50004997 0 0 1 0.5,-0.5 z m 4,0 2,0 a 0.50004997,0.50004997 0 0 1 0.5,0.5 l 0,2 a 0.50004997,0.50004997 0 0 1 -0.5,0.5 l -2,0 a 0.50004997,0.50004997 0 0 1 -0.5,-0.5 l 0,-2 a 0.50004997,0.50004997 0 0 1 0.5,-0.5 z m -14.013671,0.683594 a 0.50005,0.50005 0 0 1 0.359374,0.859375 l -1.326171,1.3125 a 0.50005,0.50005 0 0 1 -0.703125,0 l -0.664063,-0.65625 a 0.50005,0.50005 0 1 1 0.703125,-0.710938 l 0.3125,0.308594 0.97461,-0.964844 a 0.50005,0.50005 0 0 1 0.34375,-0.148437 z M 13.005859,21 l 1,0 0,1 -1,0 0,-1 z m 8,0 0,1 1,0 0,-1 -1,0 z m 4,0 0,1 1,0 0,-1 -1,0 z m 4,0 0,1 1,0 0,-1 -1,0 z m 4,0 0,1 1,0 0,-1 -1,0 z m -20.5,3 2,0 a 0.50004997,0.50004997 0 0 1 0.5,0.5 l 0,2 a 0.50004997,0.50004997 0 0 1 -0.5,0.5 l -2,0 a 0.50004997,0.50004997 0 0 1 -0.5,-0.5 l 0,-2 a 0.50004997,0.50004997 0 0 1 0.5,-0.5 z m 4,0 2,0 a 0.50004997,0.50004997 0 0 1 0.5,0.5 l 0,2 a 0.50004997,0.50004997 0 0 1 -0.5,0.5 l -2,0 a 0.50004997,0.50004997 0 0 1 -0.5,-0.5 l 0,-2 a 0.50004997,0.50004997 0 0 1 0.5,-0.5 z m 4,0 2,0 a 0.50004997,0.50004997 0 0 1 0.5,0.5 l 0,2 a 0.50004997,0.50004997 0 0 1 -0.5,0.5 l -2,0 a 0.50004997,0.50004997 0 0 1 -0.5,-0.5 l 0,-2 a 0.50004997,0.50004997 0 0 1 0.5,-0.5 z m 4,0 2,0 a 0.50004997,0.50004997 0 0 1 0.5,0.5 l 0,2 a 0.50004997,0.50004997 0 0 1 -0.5,0.5 l -2,0 a 0.50004997,0.50004997 0 0 1 -0.5,-0.5 l 0,-2 a 0.50004997,0.50004997 0 0 1 0.5,-0.5 z m 8,0 2,0 a 0.50004997,0.50004997 0 0 1 0.5,0.5 l 0,2 a 0.50004997,0.50004997 0 0 1 -0.5,0.5 l -2,0 a 0.50004997,0.50004997 0 0 1 -0.5,-0.5 l 0,-2 a 0.50004997,0.50004997 0 0 1 0.5,-0.5 z m -2.011718,0.683594 a 0.50005,0.50005 0 0 1 0.359375,0.859375 l -1.328125,1.3125 a 0.50005,0.50005 0 0 1 -0.703125,0 l -0.664063,-0.65625 a 0.50005,0.50005 0 1 1 0.703125,-0.710938 l 0.3125,0.308594 0.976563,-0.964844 a 0.50005,0.50005 0 0 1 0.34375,-0.148437 z M 13.005859,25 l 0,1 1,0 0,-1 -1,0 z m 4,0 0,1 1,0 0,-1 -1,0 z m 4,0 0,1 1,0 0,-1 -1,0 z m 4,0 0,1 1,0 0,-1 -1,0 z m 8,0 0,1 1,0 0,-1 -1,0 z m -20.5,3 2,0 a 0.50004997,0.50004997 0 0 1 0.5,0.5 l 0,2 a 0.50004997,0.50004997 0 0 1 -0.5,0.5 l -2,0 a 0.50004997,0.50004997 0 0 1 -0.5,-0.5 l 0,-2 a 0.50004997,0.50004997 0 0 1 0.5,-0.5 z m 4,0 2,0 a 0.50004997,0.50004997 0 0 1 0.5,0.5 l 0,2 a 0.50004997,0.50004997 0 0 1 -0.5,0.5 l -2,0 a 0.50004997,0.50004997 0 0 1 -0.5,-0.5 l 0,-2 a 0.50004997,0.50004997 0 0 1 0.5,-0.5 z m 8,0 2,0 a 0.50004997,0.50004997 0 0 1 0.5,0.5 l 0,2 a 0.50004997,0.50004997 0 0 1 -0.5,0.5 l -2,0 a 0.50004997,0.50004997 0 0 1 -0.5,-0.5 l 0,-2 a 0.50004997,0.50004997 0 0 1 0.5,-0.5 z m 4,0 2,0 a 0.50004997,0.50004997 0 0 1 0.5,0.5 l 0,2 a 0.50004997,0.50004997 0 0 1 -0.5,0.5 l -2,0 a 0.50004997,0.50004997 0 0 1 -0.5,-0.5 l 0,-2 a 0.50004997,0.50004997 0 0 1 0.5,-0.5 z m 4,0 2,0 a 0.50004997,0.50004997 0 0 1 0.5,0.5 l 0,2 a 0.50004997,0.50004997 0 0 1 -0.5,0.5 l -2,0 a 0.50004997,0.50004997 0 0 1 -0.5,-0.5 l 0,-2 a 0.50004997,0.50004997 0 0 1 0.5,-0.5 z m -10.011718,0.681641 a 0.50005,0.50005 0 0 1 0.357421,0.859375 l -1.326171,1.314453 a 0.50005,0.50005 0 0 1 -0.703125,0 l -0.664063,-0.65625 a 0.50005,0.50005 0 1 1 0.703125,-0.710938 l 0.3125,0.308594 0.97461,-0.966797 a 0.50005,0.50005 0 0 1 0.345703,-0.148437 z M 13.005859,29 l 0,1 1,0 0,-1 -1,0 z m 4,0 0,1 1,0 0,-1 -1,0 z m 8,0 0,1 1,0 0,-1 -1,0 z m 4,0 0,1 1,0 0,-1 -1,0 z m 4,0 0,1 1,0 0,-1 -1,0 z m -20.5,3 2,0 a 0.50004997,0.50004997 0 0 1 0.5,0.5 l 0,2 a 0.50004997,0.50004997 0 0 1 -0.5,0.5 l -2,0 a 0.50004997,0.50004997 0 0 1 -0.5,-0.5 l 0,-2 a 0.50004997,0.50004997 0 0 1 0.5,-0.5 z m 4,0 2,0 a 0.50004997,0.50004997 0 0 1 0.5,0.5 l 0,2 a 0.50004997,0.50004997 0 0 1 -0.5,0.5 l -2,0 a 0.50004997,0.50004997 0 0 1 -0.5,-0.5 l 0,-2 a 0.50004997,0.50004997 0 0 1 0.5,-0.5 z m -3.5,1 0,1 1,0 0,-1 -1,0 z m 4,0 0,1 1,0 0,-1 -1,0 z m 4,0 1,0 0,1 -1,0 0,-1 z m 4,0 1,0 0,1 -1,0 0,-1 z m 4,0 1,0 0,1 -1,0 0,-1 z m 4,0 1,0 0,1 -1,0 0,-1 z"
       transform="translate(0,1004.3622)"
       id="path6"
       inkscape:connector-curvature="0" />
  </g>
</svg>
